<svg width="72" height="72" viewBox="0 0 72 72" fill="none" xmlns="http://www.w3.org/2000/svg">
<path fill-rule="evenodd" clip-rule="evenodd" d="M36.7618 12.4279L28.3035 13.2275C27.7665 8.96282 24.6786 1.07318 16.6231 3.63198C9.37314 5.9349 13.2666 15.6264 16.6231 20.0243C13.8037 22.6897 8.32595 29.8597 8.97039 37.2163C9.61483 44.5728 11.387 49.6105 12.1926 51.2097L10.9842 52.809C10.5815 52.5424 9.61481 52.1693 8.97037 52.809C8.32593 53.4487 8.97037 54.1417 9.37314 54.4082C8.43333 55.3411 7.03703 57.5268 8.97034 58.8062C10.9037 60.0856 15.1462 58.8062 17.0258 58.0065L23.873 63.2041C24.9471 64.6701 27.498 67.9702 27.498 69.6011V70.8006C27.0952 71.2004 26.4507 72 27.0952 72H35.5534C35.822 72 36.359 71.6002 36.359 70.0009V66.8024L42.8034 65.603L47.2339 70.8006C47.5024 71.0671 48.12 71.5202 48.4422 71.2004C48.7644 70.8805 52.6042 67.8686 54.4838 66.4026C54.7523 66.0028 54.9671 65.2032 53.6783 65.2032C52.3894 65.2032 52.3357 60.672 52.4699 58.4064C53.544 57.0736 55.7727 54.2483 56.0949 53.6086C56.4171 52.9689 57.3032 50.9432 57.706 50.0103C60.6597 48.411 66.6476 44.4929 66.9698 41.6142C67.292 38.7356 64.9559 38.2824 63.7476 38.4157C63.7476 38.0159 63.5865 37.2163 62.9421 37.2163C62.2976 37.2163 61.331 38.2824 60.9282 38.8155H59.7199C59.7199 36.1501 59.156 29.8597 56.9005 26.0215C54.6449 22.1833 50.3218 18.2918 48.4422 16.8258C50.1876 11.495 51.6644 0.673365 43.6089 0.0336641C35.5534 -0.606037 35.6877 8.02992 36.7618 12.4279ZM12.9981 31.6189C12.5935 31.8599 12.6262 32.5751 12.5953 33.2181C12.5572 34.0134 12.7939 34.297 13.4009 34.8174C13.7773 35.1401 14.2064 35.2172 14.2064 35.2172C14.8777 36.9497 16.1745 40.3465 17.0258 41.6142C17.8772 42.8819 21.4564 42.9469 24.6786 42.4138C27.9007 41.8808 30.7202 40.8146 31.5257 40.015C32.1701 39.3753 32.5998 37.6161 32.734 36.8165L33.1368 32.4185H35.1507C35.5534 33.4847 36.6007 36.0168 37.5673 37.6161C38.534 39.2153 41.8892 39.7389 45.22 39.6152C48.2024 39.5044 51.6644 38.0159 52.47 37.2163C53.1144 36.5766 53.2755 31.8854 53.2755 29.6198C53.6783 29.4866 54.4838 28.9002 54.4838 27.6208C54.4838 26.3414 53.544 26.0215 53.2755 26.0215L52.47 26.0215C51.6644 25.4884 49.7929 24.6104 48.845 24.4223C46.8311 24.0224 41.1923 24.0224 38.7756 25.2219C36.8423 26.1814 35.2849 27.754 34.7479 28.4204H32.3313C30.5859 27.6208 27.498 25.6217 21.4564 27.2209C16.9987 28.4009 14.7435 30.2862 14.2064 31.2191C14.2064 31.2191 13.4027 31.3779 12.9981 31.6189Z" fill="black"/>
</svg>
